<svg width="20" height="20" viewBox="0 0 20 20" fill="none" xmlns="http://www.w3.org/2000/svg">
<path d="M10 20C7.23958 20 4.73958 18.8802 2.92969 17.0703C1.11979 15.262 0 12.762 0 10C0 7.23958 1.11979 4.73796 2.92969 2.92969C4.73958 1.11979 7.23958 0 10 0C12.7604 0 15.262 1.11979 17.0703 2.92969C18.8802 4.73958 20 7.23958 20 10C20 12.7604 18.8802 15.262 17.0703 17.0703C15.262 18.8802 12.762 20 10 20ZM10 4.97721C10.6494 4.97721 11.1751 5.50456 11.1751 6.15234C11.1751 6.80013 10.6478 7.32747 10 7.32747C9.35059 7.32747 8.82324 6.80176 8.82324 6.15234C8.82324 5.50293 9.35059 4.97721 10 4.97721ZM10 12.8402C10.6494 12.8402 11.1751 13.3659 11.1751 14.0169C11.1751 14.6663 10.6478 15.1921 10 15.1921C9.35059 15.1921 8.82324 14.6663 8.82324 14.0169C8.82324 13.3675 9.35059 12.8402 10 12.8402ZM10 8.90788C10.6494 8.90788 11.1751 9.43522 11.1751 10.083C11.1751 10.7324 10.6478 11.2581 10 11.2581C9.35059 11.2581 8.82324 10.7308 8.82324 10.083C8.82487 9.43522 9.35059 8.90788 10 8.90788ZM4.10156 15.8984C5.61198 17.4072 7.69694 18.3398 10 18.3398C12.3031 18.3398 14.388 17.4056 15.8984 15.8968C17.4072 14.388 18.3415 12.3031 18.3415 9.99837C18.3415 7.69368 17.4072 5.61035 15.8984 4.10156C14.3896 2.59277 12.3047 1.65853 10 1.65853C7.69694 1.65853 5.61198 2.59277 4.10319 4.10156C2.59277 5.61198 1.66016 7.69694 1.66016 10C1.66016 12.3031 2.59277 14.388 4.10156 15.8984Z" fill="#3D3D3D"/>
</svg>
