<svg width="16" height="16" viewBox="0 0 16 16" fill="none" xmlns="http://www.w3.org/2000/svg">
<path d="M7.99999 16C6.14844 16.0005 4.35399 15.359 2.92243 14.1847C1.49087 13.0105 0.510788 11.3761 0.149191 9.56025C-0.212406 7.74435 0.0668612 5.85924 0.939402 4.22617C1.81194 2.5931 3.22377 1.31312 4.93429 0.604341C6.64481 -0.104439 8.54818 -0.198154 10.32 0.339165C12.0919 0.876483 13.6227 2.01159 14.6514 3.55104C15.6801 5.0905 16.1432 6.93905 15.9618 8.78169C15.7803 10.6243 14.9655 12.347 13.6562 13.6562C12.9145 14.4005 12.0329 14.9907 11.0622 15.3929C10.0914 15.7952 9.05075 16.0015 7.99999 16ZM7.3164 6.3802L7.79036 6.86067H7.80989C7.84805 6.85866 7.8863 6.85866 7.92447 6.86067C8.0763 6.86033 8.2267 6.88996 8.36705 6.94786C8.50741 7.00576 8.63495 7.0908 8.74237 7.1981C8.84978 7.3054 8.93497 7.43285 8.99303 7.57313C9.05109 7.71342 9.08089 7.86379 9.08072 8.01562C9.08281 8.05639 9.08281 8.09724 9.08072 8.13801V8.16405L9.60155 8.68489L11.0677 4.89452L7.3164 6.3802ZM7.60546 7.16145L6.88671 6.43359L6.70051 6.24739L11.681 4.26822L9.71353 9.30598L8.6953 8.27473L8.71483 8.18359C8.7213 8.15525 8.72608 8.12655 8.72916 8.09765C8.72916 8.0664 8.72916 8.03775 8.72916 8.01171C8.72847 7.79724 8.64288 7.59178 8.49111 7.44025C8.33933 7.28872 8.13373 7.20346 7.91926 7.20312H7.83853C7.81143 7.20556 7.78448 7.20947 7.7578 7.21484L7.66666 7.23306L7.60025 7.16666L7.60546 7.16145ZM8.38671 8.80598L9.20702 9.63801L9.15233 9.74869L9.06119 9.83202L4.319 11.7187L6.28515 6.6901L7.20572 7.62239L7.16666 7.72525C7.14969 7.77039 7.13705 7.81704 7.1289 7.86458C7.12086 7.91191 7.11651 7.9598 7.11588 8.0078C7.11656 8.22205 7.20197 8.42732 7.35347 8.57881C7.50496 8.7303 7.71023 8.81571 7.92447 8.8164C7.97116 8.81643 8.01777 8.81251 8.06379 8.80468C8.10823 8.7972 8.15184 8.78543 8.194 8.76952L8.29817 8.73176L8.37629 8.81119L8.38671 8.80598ZM3.42447 12.5755C4.48311 13.6347 5.8763 14.2941 7.36661 14.4413C8.85693 14.5884 10.3522 14.2142 11.5975 13.3825C12.8429 12.5507 13.7613 11.3129 14.1962 9.87988C14.6312 8.44687 14.5558 6.90738 13.9829 5.52374C13.41 4.14009 12.375 2.99792 11.0543 2.29184C9.73367 1.58577 8.20903 1.35949 6.74023 1.65156C5.27142 1.94363 3.94934 2.73598 2.99927 3.89359C2.04919 5.05119 1.52992 6.50243 1.52994 7.99999C1.52895 8.84983 1.69581 9.69149 2.02092 10.4767C2.34603 11.2619 2.82301 11.9751 3.42447 12.5755Z" fill="#585858"/>
</svg>
