<svg width="32" height="32" viewBox="0 0 32 32" fill="none" xmlns="http://www.w3.org/2000/svg">
<circle cx="16" cy="16" r="16" fill="white"/>
<g clip-path="url(#clip0_1_225)">
<path d="M14.8509 11.9229L12.0059 9.32357C11.5371 8.89714 11.5078 8.17122 11.9342 7.7041C12.3607 7.23535 13.0866 7.20605 13.5537 7.63249L14.8493 8.81413V7.15234C14.8493 6.51595 15.3652 6 16.0016 6C16.638 6 17.154 6.51595 17.154 7.15234V8.92318L18.679 7.52995C19.1478 7.10352 19.8737 7.13444 20.2985 7.60156C20.7249 8.07031 20.694 8.79622 20.2269 9.22103L17.1556 12.0303V14.8444H19.9518L22.6878 11.8496C23.1143 11.3809 23.8402 11.3516 24.3073 11.778C24.776 12.2044 24.8053 12.9303 24.3789 13.3975L23.0589 14.8444H24.8477C25.4841 14.8444 26 15.3604 26 15.9967C26 16.6331 25.4841 17.1491 24.8477 17.1491H23.2217L24.4814 18.5228C24.9079 18.9915 24.877 19.7174 24.4098 20.1423C23.9411 20.5687 23.2152 20.5378 22.7904 20.0706L20.113 17.1491H17.154V20.012L20.2269 22.8197C20.6956 23.2461 20.7249 23.972 20.2985 24.4391C19.8721 24.9079 19.1462 24.9372 18.679 24.5107L17.1556 23.1191V24.8477C17.1556 25.4841 16.6396 26 16.0033 26C15.3669 26 14.8509 25.4841 14.8509 24.8477V23.2282L13.5553 24.4098C13.0866 24.8363 12.3607 24.8053 11.9359 24.3382C11.5094 23.8695 11.5404 23.1436 12.0075 22.7188L14.8525 20.1211V17.1491H12.0059L9.33008 20.0706C8.90365 20.5394 8.17773 20.5687 7.71061 20.1423C7.24349 19.7158 7.21257 18.9899 7.639 18.5228L8.89876 17.1491H7.15234C6.51595 17.1491 6 16.6331 6 15.9967C6 15.3604 6.51595 14.8444 7.15234 14.8444H9.0599L7.73991 13.3975C7.31348 12.9287 7.3444 12.2028 7.81152 11.778C8.28027 11.3516 9.00619 11.3825 9.43099 11.8496L12.167 14.8444H14.8493V11.9229H14.8509Z" fill="black"/>
</g>
<defs>
<clipPath id="clip0_1_225">
<rect width="20" height="20" fill="white" transform="translate(6 6)"/>
</clipPath>
</defs>
</svg>
