<svg width="32" height="32" viewBox="0 0 32 32" fill="none" xmlns="http://www.w3.org/2000/svg">
<circle cx="16" cy="16" r="16" fill="white"/>
<g clip-path="url(#clip0_1_234)">
<path d="M10.6696 18.6881C10.4076 18.6881 10.196 18.4766 10.196 18.2145C10.196 17.9525 10.4076 17.7409 10.6696 17.7409H19.0306C19.0648 17.7409 19.099 17.7441 19.1315 17.7523C19.431 17.7979 19.7109 17.8825 19.9616 18.0176C20.2383 18.1673 20.4743 18.374 20.6566 18.6507C21.2832 19.5996 21.1904 20.4801 20.7477 21.1312C20.4596 21.556 20.0202 21.8717 19.5352 22.0378C19.0469 22.2054 18.5065 22.2217 18.0182 22.0426C17.2793 21.7725 16.6803 21.084 16.5924 19.8372C16.5745 19.5768 16.7715 19.3522 17.0319 19.3343C17.2923 19.3164 17.5169 19.5133 17.5348 19.7738C17.5918 20.5778 17.9271 21.0042 18.3389 21.154C18.6172 21.2549 18.9362 21.2419 19.2308 21.1409C19.5303 21.0384 19.7972 20.8496 19.9665 20.6006C20.209 20.2441 20.2448 19.7412 19.8672 19.1699C19.7744 19.0299 19.654 18.9242 19.5124 18.8477C19.3643 18.7679 19.1917 18.7158 19.0029 18.6865H10.6696V18.6881ZM8.50814 14.4287C8.24609 14.4287 8.03451 14.2171 8.03451 13.9551C8.03451 13.693 8.24609 13.4814 8.50814 13.4814H16.8431C17.0335 13.4521 17.2061 13.4001 17.3542 13.3203C17.4958 13.2438 17.6162 13.138 17.709 12.998C18.0866 12.4268 18.0492 11.9238 17.8083 11.5674C17.639 11.3184 17.3721 11.1296 17.0726 11.027C16.778 10.9261 16.4574 10.9131 16.1807 11.014C15.7705 11.1637 15.4336 11.5902 15.3766 12.3942C15.3587 12.6546 15.1341 12.8516 14.8737 12.8337C14.6133 12.8158 14.4163 12.5911 14.4342 12.3307C14.5221 11.084 15.1211 10.3955 15.86 10.1253C16.3483 9.94792 16.8887 9.96419 17.377 10.1302C17.862 10.2962 18.3014 10.6136 18.5895 11.0368C19.0322 11.6878 19.125 12.5684 18.4984 13.5173C18.3161 13.7939 18.0801 14.0006 17.8034 14.1504C17.5527 14.2855 17.2728 14.3701 16.9733 14.4157C16.9408 14.4222 16.9066 14.4271 16.8724 14.4271H8.50814V14.4287ZM6.47363 16.5592C6.21159 16.5592 6 16.346 6 16.0856C6 15.8236 6.21159 15.612 6.47363 15.612H23.9004C24.0908 15.5827 24.2633 15.5306 24.4098 15.4508C24.5514 15.3743 24.6719 15.2686 24.7646 15.1286C25.1423 14.5573 25.1048 14.0544 24.8639 13.6979C24.6947 13.4489 24.4277 13.2601 24.1283 13.1576C23.8337 13.0566 23.513 13.0436 23.2363 13.1445C22.8262 13.2943 22.4893 13.7207 22.4323 14.5247C22.4144 14.7852 22.1898 14.9821 21.9294 14.9642C21.6689 14.9463 21.472 14.7217 21.4899 14.4613C21.5778 13.2145 22.1768 12.526 22.9157 12.2559C23.404 12.0784 23.9443 12.0947 24.4326 12.2607C24.9176 12.4268 25.3571 12.7441 25.6452 13.1673C26.0879 13.8184 26.1807 14.6989 25.554 15.6478C25.3717 15.9245 25.1357 16.1312 24.8591 16.2809C24.6084 16.416 24.3285 16.5006 24.029 16.5462C23.9964 16.5527 23.9622 16.5576 23.9281 16.5576H6.47363V16.5592Z" fill="black"/>
</g>
<defs>
<clipPath id="clip0_1_234">
<rect width="20" height="12.1712" fill="white" transform="translate(6 10)"/>
</clipPath>
</defs>
</svg>
