<svg width="32" height="32" viewBox="0 0 32 32" fill="none" xmlns="http://www.w3.org/2000/svg">
<circle cx="16" cy="16" r="16" fill="white"/>
<g clip-path="url(#clip0_1_243)">
<path d="M25.7558 15.5807L25.7949 15.6117C25.9072 15.7054 25.9793 15.8386 25.9966 15.9838C26.0138 16.1291 25.9749 16.2755 25.8877 16.3929L25.8568 16.4401C25.7484 16.5652 25.5965 16.6443 25.4319 16.6615C25.2677 16.6807 25.102 16.639 24.9665 16.5443C24.5449 16.2399 24.1901 16.1797 23.8581 16.2513C23.4909 16.3614 23.1456 16.5343 22.8375 16.7624C22.3004 17.1091 21.7243 17.4801 21.0065 17.6592C20.2887 17.8382 19.4212 17.8219 18.3242 17.3988L18.2851 17.3825C18.1485 17.3204 18.0399 17.2095 17.9808 17.0716C17.927 16.9362 17.927 16.7854 17.9808 16.6501L18.0003 16.6061C18.0659 16.4565 18.1874 16.3385 18.3388 16.2773C18.4962 16.218 18.6698 16.218 18.8271 16.2773C19.6068 16.5817 20.2269 16.585 20.751 16.4401C21.244 16.2869 21.709 16.055 22.1279 15.7533C23.2363 15.0436 24.1885 14.4316 25.7591 15.5693L25.7558 15.5807ZM16.0911 11.0413V21.6794C15.8479 21.7126 15.6026 21.7295 15.3571 21.7298C13.9326 21.7298 12.5664 21.1639 11.5591 20.1567C10.5519 19.1494 9.98598 17.7832 9.98598 16.3587C9.98598 14.9342 10.5519 13.5681 11.5591 12.5608C12.5664 11.5535 13.9326 10.9876 15.3571 10.9876C15.6026 10.9879 15.8479 11.0048 16.0911 11.0381V11.0413ZM15.8372 7.60221C15.8415 7.52061 15.8291 7.43899 15.8008 7.36233C15.7724 7.28567 15.7288 7.21557 15.6726 7.1563C15.6163 7.09703 15.5486 7.04984 15.4735 7.01759C15.3984 6.98534 15.3175 6.9687 15.2358 6.9687C15.1541 6.9687 15.0732 6.98534 14.9981 7.01759C14.9231 7.04984 14.8553 7.09703 14.7991 7.1563C14.7428 7.21557 14.6992 7.28567 14.6709 7.36233C14.6426 7.43899 14.6302 7.52061 14.6344 7.60221V9.14193C14.6302 9.22354 14.6426 9.30516 14.6709 9.38182C14.6992 9.45848 14.7428 9.52858 14.7991 9.58784C14.8553 9.64711 14.9231 9.6943 14.9981 9.72656C15.0732 9.75881 15.1541 9.77544 15.2358 9.77544C15.3175 9.77544 15.3984 9.75881 15.4735 9.72656C15.5486 9.6943 15.6163 9.64711 15.6726 9.58784C15.7288 9.52858 15.7724 9.45848 15.8008 9.38182C15.8291 9.30516 15.8415 9.22354 15.8372 9.14193V7.60221ZM11.3922 8.53809C11.313 8.40039 11.1824 8.29979 11.029 8.25843C10.8756 8.21707 10.7121 8.23834 10.5744 8.31755C10.4367 8.39676 10.3361 8.52743 10.2947 8.68081C10.2533 8.83419 10.2746 8.99772 10.3538 9.13542L11.1253 10.4684C11.2073 10.6001 11.3372 10.6949 11.4876 10.7328C11.638 10.7707 11.7973 10.7487 11.9319 10.6715C12.0664 10.5943 12.1658 10.4679 12.209 10.3189C12.2523 10.1699 12.236 10.01 12.1637 9.87272L11.3922 8.53809ZM8.01333 11.5687C7.87605 11.4955 7.71574 11.4785 7.56615 11.5211C7.41655 11.5638 7.28934 11.6628 7.21131 11.7974C7.13327 11.932 7.11048 12.0916 7.14775 12.2426C7.18502 12.3936 7.27943 12.5243 7.41111 12.6071L8.74575 13.377C8.88323 13.4566 9.04673 13.4784 9.20026 13.4375C9.35379 13.3966 9.48479 13.2963 9.56443 13.1589C9.64408 13.0214 9.66584 12.8579 9.62494 12.7043C9.58404 12.5508 9.48382 12.4198 9.34633 12.3402L8.01333 11.5687ZM6.60219 15.8835C6.44204 15.8835 6.28846 15.9471 6.17521 16.0603C6.06197 16.1736 5.99835 16.3272 5.99835 16.4873C5.99835 16.6475 6.06197 16.801 6.17521 16.9143C6.28846 17.0275 6.44204 17.0911 6.60219 17.0911H8.14191C8.22352 17.0954 8.30514 17.083 8.3818 17.0547C8.45846 17.0264 8.52855 16.9828 8.58782 16.9265C8.64709 16.8702 8.69428 16.8025 8.72653 16.7274C8.75879 16.6523 8.77542 16.5715 8.77542 16.4897C8.77542 16.408 8.75879 16.3272 8.72653 16.2521C8.69428 16.177 8.64709 16.1093 8.58782 16.053C8.52855 15.9967 8.45846 15.9531 8.3818 15.9248C8.30514 15.8965 8.22352 15.8841 8.14191 15.8883L6.60219 15.8835ZM7.53807 20.3285C7.46988 20.3677 7.41009 20.4199 7.36211 20.4823C7.31413 20.5446 7.27889 20.6158 7.25841 20.6917C7.23793 20.7677 7.23261 20.8469 7.24275 20.9249C7.2529 21.0029 7.2783 21.0781 7.31753 21.1463C7.35675 21.2145 7.40901 21.2743 7.47134 21.3223C7.53367 21.3703 7.60484 21.4055 7.68079 21.426C7.75673 21.4465 7.83597 21.4518 7.91397 21.4416C7.99197 21.4315 8.06721 21.4061 8.1354 21.3669L9.4684 20.5954C9.60589 20.5164 9.70636 20.386 9.74772 20.2329C9.78908 20.0799 9.76794 19.9166 9.68894 19.7791C9.60995 19.6417 9.47957 19.5412 9.3265 19.4998C9.17342 19.4585 9.01019 19.4796 8.8727 19.5586L7.53807 20.3285ZM10.5687 23.7074C10.5257 23.7757 10.497 23.8519 10.4841 23.9316C10.4713 24.0112 10.4746 24.0926 10.494 24.171C10.5133 24.2493 10.5482 24.3229 10.5966 24.3875C10.645 24.452 10.706 24.5062 10.7758 24.5466C10.8456 24.5871 10.9228 24.6131 11.0029 24.6231C11.0829 24.633 11.1642 24.6268 11.2418 24.6047C11.3194 24.5825 11.3917 24.545 11.4545 24.4943C11.5172 24.4436 11.5691 24.3808 11.6071 24.3096L12.3769 22.9749C12.4471 22.8379 12.4619 22.6792 12.4183 22.5315C12.3748 22.3838 12.2762 22.2585 12.143 22.1815C12.0097 22.1044 11.8519 22.0814 11.7022 22.1173C11.5525 22.1532 11.4223 22.2452 11.3385 22.3744L10.5687 23.7074ZM14.8834 25.1201C14.8915 25.2742 14.9583 25.4193 15.0702 25.5256C15.1821 25.6318 15.3305 25.691 15.4848 25.691C15.6391 25.691 15.7876 25.6318 15.8995 25.5256C16.0114 25.4193 16.0782 25.2742 16.0862 25.1201V23.5788C16.0782 23.4247 16.0114 23.2796 15.8995 23.1733C15.7876 23.0671 15.6391 23.0079 15.4848 23.0079C15.3305 23.0079 15.1821 23.0671 15.0702 23.1733C14.9583 23.2796 14.8915 23.4247 14.8834 23.5788V25.1201ZM25.7591 11.9365L25.7949 11.9642C25.9063 12.0589 25.9777 12.1922 25.995 12.3374C26.0122 12.4826 25.9738 12.6289 25.8877 12.7471L25.8568 12.7861C25.7471 12.9104 25.5954 12.9898 25.4307 13.009C25.2661 13.0282 25.1002 12.986 24.9648 12.8903C24.5416 12.5859 24.1868 12.5273 23.8564 12.599C23.489 12.7083 23.1436 12.8813 22.8359 13.11C22.3004 13.4567 21.7226 13.8278 21.0032 14.0085C20.2838 14.1891 19.4163 14.1712 18.3209 13.748L18.2803 13.7318C18.1447 13.6687 18.0369 13.5581 17.9775 13.4209C17.9213 13.2826 17.9213 13.1279 17.9775 12.9896L17.9971 12.9456C18.0696 12.8014 18.1949 12.6907 18.347 12.6364C18.504 12.5754 18.6782 12.5754 18.8353 12.6364C19.4415 12.8995 20.1173 12.9567 20.7591 12.7992C21.2439 12.6446 21.701 12.4138 22.1133 12.1156H22.123C23.2282 11.4092 24.1803 10.8005 25.7493 11.9333L25.7591 11.9365ZM25.7591 19.2396L25.7982 19.2689C25.9095 19.3636 25.981 19.4969 25.9982 19.6421C26.0154 19.7873 25.9771 19.9336 25.8909 20.0518L25.86 20.0908C25.7516 20.2169 25.599 20.2967 25.4336 20.3138C25.2693 20.3331 25.1037 20.2914 24.9681 20.1966C24.125 19.5863 23.5309 19.9688 22.8408 20.4131C22.3053 20.7598 21.7275 21.1309 21.0081 21.3115C20.2887 21.4922 19.4228 21.4743 18.3258 21.0511L18.2851 21.0348C18.1493 20.9722 18.0414 20.8614 17.9824 20.724C17.927 20.5861 17.927 20.4321 17.9824 20.2943L18.0003 20.2552C18.0727 20.1082 18.1993 19.995 18.3535 19.9395C18.5107 19.8792 18.6846 19.8792 18.8418 19.9395C19.6214 20.2438 20.2415 20.2471 20.7656 20.1022C21.2586 19.949 21.7236 19.7171 22.1426 19.4154C23.251 18.7041 24.2031 18.0938 25.7737 19.2314L25.7591 19.2396Z" fill="black"/>
</g>
<defs>
<clipPath id="clip0_1_243">
<rect width="20" height="18.7207" fill="white" transform="translate(6 7)"/>
</clipPath>
</defs>
</svg>
