<svg width="37" height="37" viewBox="0 0 37 37" fill="none" xmlns="http://www.w3.org/2000/svg">
<path d="M20.2754 17.437C19.6545 16.1731 13.2476 8.10018 13.0313 8.22363C12.8149 8.34708 15.4107 18.5993 16.0323 19.8636C16.6532 21.127 18.1066 21.6085 19.2779 20.9387C20.4499 20.269 20.8966 18.7012 20.2754 17.437Z" fill="white"/>
<path d="M28.7526 18.5H26.7475C26.3553 18.5 26.037 18.1934 26.037 17.8148C26.037 17.4362 26.3553 17.1296 26.7475 17.1296H28.7526C29.1447 17.1296 29.463 17.4362 29.463 17.8148C29.463 18.1934 29.1447 18.5 28.7526 18.5Z" fill="white"/>
<path d="M18.5 0C8.28282 0 0 8.28245 0 18.5C0 28.7168 8.28282 37 18.5 37C28.7168 37 37 28.7168 37 18.5C37 8.28245 28.7168 0 18.5 0ZM18.5 4.69863C26.1224 4.69863 32.3014 10.8773 32.3014 18.5C32.3014 19.4309 32.2078 20.3407 32.032 21.2195H24.2184C23.5675 23.0939 21.258 24.4829 18.5 24.4829C15.742 24.4829 13.4321 23.0939 12.7813 21.2195H4.96762C4.79187 20.3407 4.69826 19.4309 4.69826 18.5C4.69826 10.8773 10.8776 4.69863 18.5 4.69863Z" fill="white"/>
<path d="M25.438 14.3889C25.1721 14.3889 24.9128 14.2806 24.7701 14.0875C24.5572 13.7993 24.6834 13.431 25.0525 13.2643L26.9362 12.4141C27.3044 12.248 27.7767 12.3463 27.9892 12.6348C28.2021 12.923 28.0759 13.2913 27.7068 13.458L25.8231 14.3082C25.7011 14.3626 25.5687 14.3889 25.438 14.3889Z" fill="white"/>
<path d="M18.5 10.963C18.1214 10.963 17.8148 10.6451 17.8148 10.2525V8.24755C17.8148 7.85497 18.1214 7.53705 18.5 7.53705C18.8782 7.53705 19.1852 7.85497 19.1852 8.24755V10.2525C19.1852 10.6447 18.8782 10.963 18.5 10.963Z" fill="white"/>
<path d="M22.5282 12.3333C22.426 12.3333 22.3222 12.3 22.2274 12.2297C21.9391 12.0167 21.8404 11.5452 22.0066 11.1768L22.8569 9.29287C23.0234 8.92365 23.3924 8.79825 23.68 9.01082C23.9683 9.2238 24.0669 9.69539 23.9008 10.0638L23.0504 11.9477C22.9389 12.1952 22.7361 12.3333 22.5282 12.3333Z" fill="white"/>
<path d="M10.2525 18.5H8.24755C7.85497 18.5 7.53705 18.1934 7.53705 17.8148C7.53705 17.4362 7.85497 17.1296 8.24755 17.1296H10.2525C10.6451 17.1296 10.963 17.4362 10.963 17.8148C10.963 18.1934 10.6451 18.5 10.2525 18.5Z" fill="white"/>
<path d="M11.7162 15.0741C11.6119 15.0741 11.5057 15.0394 11.4084 14.9665L9.90098 13.8329C9.60634 13.6109 9.50506 13.1195 9.67507 12.7352C9.84574 12.3513 10.2226 12.2193 10.5176 12.4408L12.0249 13.5745C12.3196 13.7969 12.4209 14.2879 12.2509 14.6722C12.1367 14.9297 11.9292 15.0741 11.7162 15.0741Z" fill="white"/>
</svg>