<svg width="20" height="15" viewBox="0 0 20 15" fill="none" xmlns="http://www.w3.org/2000/svg">
<g clip-path="url(#clip0_1_128)">
<path d="M14.6712 3.81021C14.6712 3.64463 14.7203 3.48277 14.8123 3.34511C14.9044 3.20746 15.0352 3.10021 15.1882 3.03694C15.3412 2.97368 15.5095 2.95724 15.6719 2.98972C15.8343 3.0222 15.9834 3.10213 16.1003 3.21939C16.1781 3.29688 16.2398 3.38894 16.282 3.49033C16.3242 3.59171 16.3459 3.70041 16.346 3.81021V11.18C16.3464 11.3457 16.2975 11.5078 16.2056 11.6457C16.1137 11.7836 15.9829 11.8911 15.8298 11.9546C15.6767 12.0181 15.5083 12.0346 15.3457 12.0022C15.1832 11.9698 15.034 11.8898 14.917 11.7725C14.8391 11.695 14.7773 11.603 14.7351 11.5016C14.693 11.4002 14.6712 11.2915 14.6712 11.1816V3.81021ZM0 2.96549C1.59529e-05 2.85567 0.021737 2.74694 0.0639146 2.64555C0.106092 2.54415 0.167894 2.4521 0.245768 2.37467C0.363077 2.2581 0.512244 2.17884 0.674497 2.14686C0.83675 2.11488 1.00484 2.13161 1.1576 2.19494C1.31037 2.25828 1.44099 2.36539 1.53302 2.50279C1.62505 2.64019 1.67438 2.80174 1.6748 2.96712V12.0166C1.67449 12.2388 1.58611 12.4519 1.42904 12.609C1.31173 12.7256 1.16256 12.8049 1.00031 12.8369C0.838055 12.8688 0.669967 12.8521 0.517201 12.7888C0.364434 12.7254 0.233816 12.6183 0.141784 12.4809C0.0497532 12.3435 0.00042215 12.182 0 12.0166L0 2.96549ZM3.67676 0.836582C3.67665 0.726892 3.69815 0.618256 3.74005 0.516881C3.78194 0.415506 3.84339 0.323378 3.9209 0.245761C4.03789 0.129059 4.18683 0.0496182 4.34891 0.0174598C4.511 -0.0146986 4.67898 0.00186597 4.83167 0.0650641C4.98435 0.128262 5.1149 0.235263 5.20685 0.372569C5.29879 0.509874 5.34802 0.671334 5.34831 0.836582V14.1439C5.34834 14.3093 5.29935 14.4709 5.20753 14.6085C5.1157 14.7461 4.98517 14.8533 4.83242 14.9167C4.67967 14.9801 4.51155 14.9968 4.34931 14.9647C4.18707 14.9326 4.03799 14.8531 3.9209 14.7363C3.84325 14.6588 3.7817 14.5667 3.7398 14.4653C3.6979 14.3639 3.67647 14.2552 3.67676 14.1455V0.836582ZM11.0091 5.52245C11.009 5.41277 11.0305 5.30413 11.0724 5.20275C11.1143 5.10138 11.1757 5.00925 11.2533 4.93163C11.4101 4.77519 11.6226 4.68734 11.8441 4.68734C12.0656 4.68734 12.2781 4.77519 12.4349 4.93163C12.5913 5.08849 12.6791 5.30096 12.679 5.52245V9.46614C12.6793 9.68816 12.5915 9.90123 12.4349 10.0586C12.3573 10.1362 12.2653 10.1979 12.1639 10.2399C12.0625 10.2819 11.9538 10.3036 11.8441 10.3036C11.7343 10.3036 11.6257 10.2819 11.5243 10.2399C11.4229 10.1979 11.3308 10.1362 11.2533 10.0586C11.1756 9.98108 11.1141 9.88897 11.0722 9.78757C11.0303 9.68617 11.0088 9.57748 11.0091 9.46777V5.52245ZM7.34538 2.97037C7.34536 2.86031 7.36706 2.75132 7.40923 2.64966C7.4514 2.54799 7.51322 2.45565 7.59115 2.37792C7.70845 2.26136 7.85762 2.1821 8.01987 2.15012C8.18213 2.11814 8.35021 2.13487 8.50298 2.1982C8.65575 2.26153 8.78637 2.36864 8.8784 2.50604C8.97043 2.64344 9.01976 2.805 9.02018 2.97037V12.0215C9.02017 12.1313 8.99845 12.24 8.95627 12.3414C8.91409 12.4428 8.85229 12.5349 8.77441 12.6123C8.65711 12.7289 8.50794 12.8081 8.34569 12.8401C8.18343 12.8721 8.01535 12.8554 7.86258 12.792C7.70981 12.7287 7.57919 12.6216 7.48716 12.4842C7.39513 12.3468 7.3458 12.1852 7.34538 12.0198V2.97037ZM18.3431 1.95312C18.3428 1.84404 18.3641 1.73598 18.4058 1.63515C18.4474 1.53432 18.5085 1.4427 18.5856 1.36555L18.6035 1.34928C18.6802 1.27406 18.7711 1.21477 18.8708 1.17485C18.9706 1.13492 19.0773 1.11515 19.1847 1.11666C19.2921 1.11817 19.3982 1.14095 19.4968 1.18366C19.5954 1.22638 19.6845 1.2882 19.7591 1.36555C19.9137 1.52204 20.0002 1.73318 20 1.95312V13.0208C20 13.2412 19.9135 13.4527 19.7591 13.61L19.7412 13.6263C19.6645 13.7015 19.5736 13.7608 19.4739 13.8007C19.3741 13.8406 19.2675 13.8604 19.16 13.8589C19.0526 13.8574 18.9465 13.8346 18.8479 13.7919C18.7493 13.7492 18.6602 13.6874 18.5856 13.61C18.4302 13.4533 18.3431 13.2415 18.3431 13.0208V1.95312Z" fill="#3D3D3D"/>
</g>
<defs>
<clipPath id="clip0_1_128">
<rect width="20" height="14.9805" fill="white"/>
</clipPath>
</defs>
</svg>
