<svg width="28" height="30" viewBox="0 0 28 30" fill="none" xmlns="http://www.w3.org/2000/svg">
<g clip-path="url(#clip0_1_251)">
<path d="M12.9673 0.599854C12.9673 0.268555 13.3406 0 13.8005 0C14.2605 0 14.6338 0.268555 14.6338 0.599854V11.4341C14.6338 11.7654 14.2607 12.0339 13.8005 12.0339C13.3403 12.0339 12.9673 11.7654 12.9673 11.4341V0.599854ZM17.9724 4.80005C17.5408 4.64185 17.3193 4.16406 17.4778 3.73242C17.6357 3.30103 18.1135 3.07959 18.5452 3.23779C21.2214 4.21802 23.5107 6.0061 25.1184 8.30762C26.6831 10.5474 27.6013 13.2686 27.6013 16.1995C27.6013 20.0095 26.0562 23.4597 23.5586 25.9575C21.061 28.4548 17.6108 30.0002 13.8005 30.0002C9.99024 30.0002 6.54004 28.4551 4.04248 25.9575C1.54517 23.4597 0 20.0095 0 16.1995C0 13.2686 0.917969 10.5474 2.48267 8.30762C4.09033 6.0061 6.37964 4.21802 9.05591 3.23779C9.4873 3.07983 9.96533 3.30127 10.1233 3.73242C10.2815 4.16382 10.0601 4.64185 9.62866 4.80005C7.27051 5.66382 5.25537 7.23608 3.84302 9.25781C2.47119 11.2217 1.66626 13.6147 1.66626 16.1995C1.66626 19.5498 3.02466 22.5833 5.2207 24.7793C7.41675 26.9753 10.4502 28.334 13.8005 28.334C17.1509 28.334 20.1843 26.9756 22.3804 24.7793C24.5764 22.5835 25.9348 19.5498 25.9348 16.1995C25.9348 13.6147 25.1299 11.2217 23.7581 9.25781C22.3455 7.23584 20.3306 5.66357 17.9724 4.80005Z" fill="white"/>
</g>
<defs>
<clipPath id="clip0_1_251">
<rect width="27.6013" height="30" fill="white"/>
</clipPath>
</defs>
</svg>
