<svg width="17" height="17" viewBox="0 0 17 17" fill="none" xmlns="http://www.w3.org/2000/svg">
<path d="M13.4035 2.75245C13.3669 2.7157 13.3328 2.69093 13.3016 2.67773C13.2719 2.66515 13.2346 2.65905 13.1897 2.65905C13.144 2.65905 13.106 2.66555 13.0754 2.67834C13.0429 2.69195 13.0102 2.7155 12.9777 2.7488L12.9739 2.75245L12.1268 3.59691C11.9595 3.76341 11.7006 3.78168 11.5132 3.65214C11.4179 3.59102 11.3158 3.53133 11.2078 3.47285C11.09 3.4093 10.9769 3.35306 10.8677 3.30311C10.7526 3.25052 10.6344 3.20077 10.5138 3.15387C10.4084 3.11286 10.2866 3.06961 10.1499 3.02474C9.94668 2.95773 9.81755 2.7687 9.81775 2.56565L9.81755 1.26658C9.81755 1.21927 9.81064 1.17867 9.79684 1.14496C9.78364 1.11227 9.76212 1.08141 9.73288 1.05176L9.73207 1.05258C9.70141 1.02212 9.67054 1.00039 9.63968 0.987805C9.60598 0.973998 9.56537 0.967298 9.51806 0.967298H7.88823C7.84519 0.967298 7.80864 0.973389 7.77859 0.985978C7.74488 0.999785 7.71036 1.02395 7.67483 1.05826C7.646 1.0873 7.62488 1.11735 7.61189 1.14841C7.59828 1.1809 7.59138 1.22009 7.59138 1.26618V2.4552C7.59138 2.69317 7.41961 2.89093 7.19321 2.93134C7.06489 2.962 6.94834 2.99306 6.8452 3.02474C6.72845 3.06047 6.61028 3.10149 6.49068 3.14798C6.37779 3.19143 6.26226 3.24057 6.14429 3.29499C6.02592 3.34981 5.91688 3.40422 5.818 3.45823C5.62714 3.56219 5.39669 3.52382 5.24948 3.37864L5.24928 3.37884L4.31122 2.45439C4.30736 2.45053 4.30371 2.44687 4.30005 2.44302C4.27061 2.41195 4.24096 2.38962 4.21152 2.37682C4.18452 2.36505 4.1498 2.35896 4.10696 2.35896C4.06432 2.35896 4.02777 2.36566 3.99691 2.37865C3.96097 2.39388 3.92564 2.41865 3.89112 2.45236L2.75205 3.59407L2.75124 3.59488L2.75205 3.5959C2.7155 3.63244 2.69073 3.66635 2.67753 3.69762C2.66494 3.72727 2.65885 3.76463 2.65885 3.8095C2.65885 3.85498 2.66515 3.89315 2.67814 3.92381C2.69195 3.9563 2.7153 3.98899 2.7486 4.02147L2.75225 4.02533L3.59671 4.87243C3.7632 5.03994 3.78148 5.29862 3.65194 5.48623C3.59082 5.58125 3.53113 5.68338 3.47265 5.79161C3.4091 5.90917 3.35285 6.02226 3.3029 6.1315C3.25011 6.24683 3.20037 6.365 3.15367 6.48561C3.11265 6.59119 3.06941 6.71302 3.02433 6.84946C2.95733 7.05271 2.76829 7.18184 2.56525 7.18184V7.18205H1.26679C1.21927 7.18205 1.17867 7.18895 1.14516 7.20255C1.11227 7.21595 1.08161 7.23687 1.05298 7.2657L1.05115 7.26753C1.02253 7.29616 1.00141 7.32682 0.988009 7.35971C0.974405 7.39341 0.967501 7.43402 0.967501 7.48133V9.11136C0.967501 9.15421 0.973795 9.19075 0.986181 9.22101C0.999988 9.25451 1.02415 9.28903 1.05867 9.32476L1.05907 9.32517C1.08811 9.3538 1.11816 9.37471 1.14882 9.3875C1.18131 9.4009 1.22049 9.40781 1.26679 9.40781H2.45561C2.69357 9.40781 2.89134 9.57978 2.93174 9.80618C2.9622 9.93389 2.99306 10.0496 3.02474 10.1526L3.02514 10.1524C3.0627 10.275 3.10372 10.3938 3.14839 10.5087C3.19143 10.6204 3.24118 10.7386 3.29722 10.863C3.35509 10.9909 3.41031 11.105 3.4625 11.2051C3.5626 11.3968 3.52097 11.6248 3.37519 11.7698L3.37559 11.77L2.45094 12.692L2.44322 12.6995H2.44342C2.41236 12.7292 2.39002 12.7584 2.37723 12.7881C2.36545 12.8151 2.35936 12.8498 2.35936 12.8926C2.35936 12.9351 2.36606 12.9718 2.37906 13.0025C2.39449 13.039 2.41987 13.0748 2.45459 13.1101L3.58513 14.2538C3.61864 14.2845 3.65255 14.3068 3.68686 14.3202C3.72158 14.3338 3.7628 14.3409 3.81011 14.3409C3.85803 14.3409 3.89985 14.334 3.93559 14.3198C3.96909 14.3066 4.00117 14.2859 4.03142 14.2575L4.86898 13.4067C5.03568 13.2372 5.29699 13.2169 5.48643 13.3477C5.58146 13.4086 5.68379 13.4685 5.79201 13.5269C5.90978 13.5905 6.02287 13.6467 6.13191 13.6967C6.24724 13.7495 6.36541 13.7992 6.48601 13.8459C6.59139 13.8869 6.71342 13.9302 6.84987 13.9751C7.05311 14.0421 7.18225 14.2313 7.18225 14.4343L7.18245 15.733C7.18245 15.7801 7.18936 15.8209 7.20316 15.8546C7.21656 15.8875 7.23748 15.9182 7.26611 15.9468L7.26692 15.9478L7.26793 15.9468C7.32519 16.0041 7.39605 16.0323 7.48174 16.0323H9.11157C9.15441 16.0323 9.19116 16.0262 9.22121 16.0136C9.25471 15.9998 9.28923 15.9754 9.32496 15.9411C9.3538 15.9119 9.37471 15.8818 9.38771 15.851C9.40131 15.8185 9.40821 15.7791 9.40821 15.7332V14.5442C9.40821 14.306 9.58019 14.1083 9.80638 14.0679C9.9347 14.0374 10.0513 14.0061 10.1544 13.9745C10.2711 13.9387 10.3893 13.8977 10.5089 13.8514C10.6206 13.8084 10.7388 13.7586 10.8632 13.7026C10.9911 13.6447 11.1055 13.5895 11.2053 13.5375C11.397 13.4374 11.625 13.479 11.77 13.6248L11.7702 13.6244L12.6922 14.5491L12.6995 14.5568L12.6997 14.5566C12.7296 14.588 12.759 14.6104 12.7879 14.6228C12.8153 14.6347 12.8518 14.6406 12.8981 14.6406C12.9428 14.6406 12.9802 14.6339 13.0106 14.6207C13.0419 14.6073 13.0713 14.5858 13.0991 14.5566C13.1052 14.5503 13.1115 14.544 13.1178 14.5379L14.2544 13.4147C14.2849 13.3814 14.3072 13.3475 14.3206 13.3129C14.3342 13.2782 14.3414 13.2372 14.3414 13.1899C14.3414 13.1418 14.3342 13.0999 14.3202 13.0644C14.307 13.0307 14.2863 12.9988 14.2581 12.9686L13.4071 12.1308C13.2376 11.9641 13.2173 11.7026 13.3481 11.5134C13.4092 11.4181 13.4689 11.316 13.5274 11.208C13.5909 11.0902 13.6471 10.9771 13.6971 10.8677C13.7499 10.7526 13.7996 10.6344 13.8463 10.5138C13.8873 10.4084 13.9306 10.2864 13.9757 10.1499C14.0427 9.94648 14.2319 9.81755 14.435 9.81755L15.7334 9.81735C15.7809 9.81735 15.8215 9.81065 15.8552 9.79663C15.8881 9.78344 15.9188 9.76232 15.9474 9.73369L15.9484 9.73288L15.9474 9.73186C16.0047 9.67461 16.0329 9.60354 16.0329 9.51806V7.88823C16.0329 7.84519 16.0266 7.80864 16.0142 7.77859C16.0004 7.74509 15.9761 7.71057 15.9417 7.67483L15.9413 7.67422C15.9123 7.64559 15.8825 7.62488 15.8516 7.61189C15.8193 7.59828 15.7799 7.59158 15.7336 7.59158H14.5448C14.304 7.59158 14.1044 7.41555 14.0672 7.1853C14.0402 7.07809 14.0098 6.96865 13.9753 6.85718C13.9405 6.7455 13.8991 6.6255 13.85 6.49698C13.8469 6.48886 13.8441 6.48073 13.8415 6.47261C13.7966 6.35525 13.7511 6.24581 13.7048 6.1445C13.6534 6.03201 13.599 5.92318 13.5416 5.818C13.4376 5.62714 13.4762 5.39669 13.6212 5.24948L14.5456 4.31142C14.5495 4.30756 14.5531 4.30391 14.5572 4.30025L14.557 4.30005C14.588 4.27061 14.6104 4.24117 14.6232 4.21173C14.635 4.18472 14.641 4.15 14.641 4.10716C14.641 4.06452 14.6343 4.02797 14.6211 3.99711C14.6059 3.96137 14.5813 3.92604 14.5474 3.89132L13.4057 2.75245L13.4047 2.75144L13.4035 2.75245ZM13.6758 1.78942C13.8293 1.85439 13.9665 1.94718 14.0875 2.0682L14.0865 2.06921L15.2293 3.2093L15.2331 3.21316C15.3533 3.33539 15.4457 3.47082 15.5089 3.61925C15.5744 3.77356 15.6079 3.93599 15.6079 4.10716C15.6079 4.28076 15.5738 4.44401 15.5068 4.59731C15.4414 4.74735 15.3466 4.88015 15.2238 4.9971L14.5511 5.67932C14.5612 5.70064 14.5712 5.72237 14.5809 5.74389C14.64 5.87364 14.6942 6.00237 14.7432 6.13028C14.7464 6.13759 14.7495 6.14531 14.7525 6.15302C14.8023 6.28338 14.8502 6.42409 14.8967 6.57373L14.9121 6.62408H15.733C15.9062 6.62408 16.0684 6.65616 16.2213 6.72012C16.3714 6.78307 16.5064 6.87505 16.627 6.99626L16.6366 7.00581C16.7545 7.12783 16.8439 7.26306 16.9056 7.41189C16.9685 7.56417 16.9998 7.72275 16.9998 7.88823V9.51826C16.9998 9.87095 16.8782 10.1686 16.6309 10.4159L16.6301 10.4149C16.5066 10.5381 16.3693 10.6305 16.2175 10.6923C16.0662 10.7542 15.905 10.7846 15.733 10.7846H14.7755C14.7659 10.8098 14.756 10.8354 14.7458 10.8612C14.6932 10.9966 14.636 11.1323 14.5738 11.2683C14.5091 11.41 14.4435 11.543 14.3775 11.665C14.3698 11.6795 14.3619 11.6943 14.3535 11.7089L14.9361 12.2821C14.9426 12.2882 14.9489 12.2947 14.9554 12.3012C15.0723 12.4246 15.1604 12.5621 15.2197 12.7125C15.2792 12.8634 15.3087 13.0228 15.3087 13.1897C15.3087 13.3558 15.279 13.5142 15.2199 13.6642C15.161 13.814 15.0741 13.9505 14.959 14.0744L14.9588 14.0741C14.9541 14.0792 14.9491 14.0845 14.944 14.0894L13.7966 15.2236C13.6778 15.3482 13.5434 15.4439 13.3925 15.5089C13.24 15.5744 13.0754 15.6079 12.8983 15.6079C12.7251 15.6079 12.5615 15.5738 12.4066 15.5068C12.2531 15.4406 12.118 15.345 12.0009 15.2215L11.3316 14.5503C11.3075 14.5617 11.2837 14.5724 11.2604 14.583C11.1363 14.6388 11.0019 14.6951 10.8569 14.7509C10.7227 14.8031 10.5816 14.8516 10.4344 14.8967C10.4147 14.9028 10.3952 14.9089 10.3757 14.9145V15.7334C10.3757 15.9064 10.3436 16.0688 10.2797 16.2213C10.2167 16.3716 10.1245 16.5066 10.0033 16.6272L9.99379 16.6368C9.87176 16.7545 9.73653 16.8441 9.58791 16.9056C9.43562 16.9687 9.27725 17 9.11157 17H7.48214C7.12946 17 6.83159 16.8782 6.58429 16.6313L6.5851 16.6303C6.46185 16.5068 6.36947 16.3696 6.30774 16.2177C6.24602 16.0664 6.21536 15.9052 6.21536 15.7334V14.7755C6.19018 14.7659 6.1648 14.756 6.13881 14.746C6.00358 14.6932 5.86795 14.636 5.73211 14.5738C5.59019 14.5091 5.4574 14.4435 5.33516 14.3775C5.32055 14.3696 5.30593 14.3617 5.29151 14.3535L4.71812 14.9359C4.71203 14.9426 4.70553 14.9489 4.69903 14.9554C4.57558 15.0723 4.43792 15.1604 4.28766 15.2197C4.1368 15.2792 3.97741 15.3087 3.81072 15.3087C3.64422 15.3087 3.48605 15.2792 3.336 15.2201C3.18616 15.1612 3.04971 15.0741 2.92606 14.959L2.92626 14.9588C2.92098 14.9541 2.9159 14.9491 2.91083 14.944L1.76709 13.7872C1.64688 13.6646 1.5547 13.5294 1.49135 13.381C1.42557 13.2268 1.39227 13.0642 1.39227 12.8932C1.39227 12.7196 1.42638 12.5564 1.49338 12.4033C1.55937 12.2522 1.6548 12.1188 1.77866 12.0013L2.44992 11.3318C2.43855 11.3079 2.42779 11.2841 2.41723 11.2606C2.36119 11.1365 2.30515 11.0021 2.24931 10.8573C2.1951 10.7182 2.14678 10.5779 2.10333 10.4366L2.10373 10.4364L2.10333 10.4348L2.08566 10.3761H1.26679C1.09379 10.3761 0.931359 10.3442 0.778671 10.2803C0.628419 10.2173 0.493395 10.1252 0.372787 10.0041L0.363244 9.9944C0.245276 9.87237 0.155937 9.73714 0.0944151 9.58852C0.0312687 9.43603 0 9.27725 0 9.11197V7.48194C0 7.31017 0.0306595 7.14895 0.0923847 6.99768C0.15411 6.84642 0.245885 6.70956 0.368524 6.58652L0.36893 6.58611L0.369742 6.5853L0.370554 6.58429C0.493598 6.46165 0.630652 6.36947 0.782123 6.30774C0.933593 6.24602 1.09481 6.21536 1.26658 6.21536H2.22454C2.23409 6.19018 2.24403 6.1648 2.25419 6.13881C2.30677 6.00358 2.36403 5.86795 2.42616 5.73191C2.49093 5.59019 2.55631 5.4574 2.6223 5.33516C2.63083 5.31953 2.63936 5.30369 2.64789 5.28806L2.0686 4.70715C1.94658 4.58634 1.85358 4.44969 1.78962 4.29883C1.72363 4.1429 1.69094 3.97985 1.69094 3.81051C1.69094 3.64178 1.72363 3.47996 1.78901 3.32463C1.85379 3.17113 1.94658 3.03387 2.06779 2.91286L2.0686 2.91367L3.20869 1.77094L3.21255 1.76709C3.33478 1.64688 3.47001 1.5545 3.61864 1.49115C3.77295 1.42557 3.93538 1.39206 4.10655 1.39206C4.28015 1.39206 4.4432 1.42618 4.59649 1.49318C4.74654 1.55876 4.87933 1.65338 4.99629 1.77622L5.6775 2.44789C5.69821 2.43794 5.71871 2.4284 5.73922 2.41885C5.8645 2.36099 5.99871 2.30454 6.14226 2.24931C6.27647 2.19713 6.41759 2.1484 6.5648 2.10333C6.58449 2.09744 6.60398 2.09135 6.62347 2.08566V1.26658C6.62347 1.09359 6.65555 0.931156 6.71931 0.778468C6.78225 0.628419 6.87444 0.493192 6.99545 0.372584L7.0052 0.363041C7.12722 0.245073 7.26245 0.155734 7.41128 0.0942121C7.56417 0.0312687 7.72275 0 7.88823 0H9.51826C9.68983 0 9.85125 0.0306595 10.0025 0.0923847C10.1566 0.155328 10.2945 0.247307 10.4159 0.368727L10.4151 0.369742L10.4159 0.370554C10.5386 0.492989 10.6305 0.630043 10.6925 0.782123C10.7542 0.93339 10.7848 1.09481 10.7848 1.26638V2.22454C10.81 2.23409 10.8356 2.24403 10.8614 2.25398C10.9966 2.30657 11.1323 2.36383 11.2683 2.42596C11.4102 2.49093 11.543 2.55631 11.665 2.6223L11.7121 2.64789L12.2931 2.0686C12.4141 1.94637 12.5505 1.85358 12.7014 1.78962C12.8575 1.72363 13.0204 1.69115 13.1897 1.69115C13.3584 1.69155 13.5204 1.72404 13.6758 1.78942ZM8.5 4.82309C8.75056 4.82309 8.99502 4.84705 9.2342 4.89476C9.46811 4.94146 9.7008 5.01375 9.93227 5.11141L9.93552 5.11283L9.93613 5.11141C10.1548 5.20562 10.3631 5.31912 10.5609 5.45151C10.7566 5.58247 10.9375 5.73029 11.1034 5.89475L11.1055 5.89678C11.2701 6.06287 11.4179 6.24399 11.5489 6.43972C11.6813 6.63748 11.7946 6.84581 11.889 7.06428C11.8947 7.07768 11.9 7.09129 11.9044 7.10489C11.9944 7.32438 12.0614 7.54468 12.1056 7.766C12.1534 8.00498 12.1773 8.24965 12.1773 8.5002C12.1773 8.75076 12.1534 8.99543 12.1056 9.2342C12.0589 9.46811 11.9867 9.7008 11.889 9.93247L11.8876 9.93572L11.889 9.93613C11.7948 10.1546 11.6813 10.3629 11.5489 10.5607C11.4179 10.7564 11.2701 10.9373 11.1055 11.1034L11.1034 11.1055C10.9375 11.2699 10.7566 11.4177 10.5607 11.5489C10.3629 11.6811 10.1548 11.7946 9.93613 11.889C9.92272 11.8947 9.90932 11.9 9.89552 11.9042C9.67603 11.9942 9.45572 12.0612 9.2342 12.1054C8.99522 12.1532 8.75056 12.1771 8.5 12.1771C8.24944 12.1771 8.00498 12.1534 7.766 12.1054C7.53209 12.0589 7.29941 11.9867 7.06794 11.889L7.06469 11.8876L7.06408 11.889C6.8456 11.7946 6.63728 11.6813 6.43952 11.5489C6.24378 11.4177 6.06287 11.2699 5.89699 11.1055L5.89516 11.1034C5.73049 10.9375 5.58267 10.7564 5.45171 10.5607C5.31933 10.3629 5.20603 10.1548 5.11182 9.93613C5.10593 9.92293 5.10085 9.90912 5.09639 9.89572C5.00644 9.67623 4.93943 9.45572 4.89497 9.2342C4.84725 8.99543 4.82329 8.75076 4.82329 8.5002C4.82329 8.24965 4.84725 8.00518 4.89497 7.766C4.94167 7.53209 5.01395 7.29941 5.11161 7.06794L5.11283 7.06469L5.11161 7.06428C5.20583 6.8456 5.31912 6.63748 5.45151 6.43972C5.58267 6.24399 5.73029 6.06308 5.89496 5.89678L5.89678 5.89496C6.06267 5.73049 6.24358 5.58267 6.43931 5.45171C6.63728 5.31933 6.8454 5.20583 7.06408 5.11161C7.07768 5.10573 7.09129 5.10065 7.10509 5.09618C7.32438 5.00644 7.54468 4.93923 7.766 4.89497C8.00478 4.84705 8.24944 4.82309 8.5 4.82309ZM9.04517 5.84318C8.86934 5.80826 8.68761 5.79059 8.5 5.79059C8.31239 5.79059 8.13066 5.80826 7.95483 5.84318C7.78569 5.87688 7.62529 5.9246 7.47362 5.98632C7.46448 5.99079 7.45514 5.99526 7.4456 5.99932C7.27402 6.07343 7.11728 6.1579 6.97575 6.25272C6.83261 6.34855 6.70002 6.45698 6.57759 6.5782C6.45678 6.70022 6.34835 6.83302 6.25251 6.97616C6.1579 7.11768 6.07343 7.27443 5.99932 7.4458L5.9979 7.44519C5.93049 7.60559 5.87891 7.77534 5.84318 7.95503C5.80805 8.13087 5.79039 8.31259 5.79039 8.5002C5.79039 8.68781 5.80785 8.86954 5.84318 9.04537C5.87688 9.21431 5.9246 9.37471 5.98612 9.52638C5.99079 9.53552 5.99506 9.54486 5.99932 9.55461C6.07323 9.72618 6.15769 9.88252 6.25251 10.0242C6.34835 10.1674 6.45678 10.3 6.57799 10.4224C6.70022 10.5434 6.83281 10.6519 6.97596 10.7477C7.11748 10.8425 7.27423 10.927 7.4456 11.0009L7.44499 11.0023C7.60519 11.0695 7.77493 11.1213 7.95463 11.1572C8.13046 11.1922 8.31198 11.2098 8.4998 11.2098C8.68741 11.2098 8.86913 11.1922 9.04497 11.1572C9.2141 11.1235 9.3743 11.0758 9.52598 11.0143C9.53532 11.0096 9.54466 11.0051 9.5542 11.0011C9.72577 10.9272 9.88232 10.8427 10.0238 10.7481C10.167 10.6521 10.2998 10.5436 10.422 10.4226C10.543 10.3004 10.6514 10.1676 10.7475 10.0242C10.8421 9.88293 10.9266 9.72618 11.0005 9.55481L11.0019 9.55522C11.0693 9.39502 11.1209 9.22527 11.1568 9.04558C11.1919 8.86974 11.2096 8.68802 11.2096 8.50041C11.2096 8.31279 11.1919 8.13107 11.1568 7.95524C11.1231 7.7861 11.0754 7.6259 11.0139 7.47423C11.0092 7.46509 11.0047 7.45575 11.0007 7.446C10.9268 7.27463 10.8423 7.11789 10.7475 6.97636C10.6516 6.83302 10.5432 6.70043 10.4224 6.5784C10.3002 6.45718 10.1674 6.34876 10.0242 6.25292C9.88252 6.1581 9.72598 6.07363 9.5544 5.99952L9.55501 5.9981C9.39481 5.93069 9.22507 5.87912 9.04517 5.84318Z" fill="white"/>
</svg>
