<svg width="54" height="54" viewBox="0 0 54 54" fill="none" xmlns="http://www.w3.org/2000/svg">
<g clip-path="url(#clip0_1_215)">
<path d="M25.8223 19.6172L22.79 16.585L22.5352 20.4565L25.8223 23.7437V19.6172ZM14.1372 15.4248L8.51221 15.6357C7.85742 15.6577 7.30811 15.148 7.28613 14.4932C7.26416 13.8384 7.77393 13.2891 8.42871 13.2671L11.8477 13.1396L7.97607 9.26807C7.51025 8.80225 7.51025 8.05078 7.97607 7.58496C8.44189 7.11914 9.19336 7.11914 9.65918 7.58496L13.4692 11.395L13.522 8.19141C13.5308 7.53662 14.0713 7.01367 14.7261 7.02246C15.3809 7.03125 15.9038 7.57178 15.895 8.22656L15.8071 13.7285L20.7422 18.6636L21.0234 14.3657C21.0542 13.8428 21.5068 13.4429 22.0298 13.478C22.2715 13.4912 22.4824 13.5967 22.6406 13.7549L25.8135 16.9277V9.14942L21.8584 5.31738C21.3882 4.86035 21.3794 4.10889 21.8364 3.63867C22.2935 3.16846 23.0449 3.15967 23.5151 3.6167L25.8135 5.84473V1.19092C25.8135 0.531738 26.3452 0 27.0044 0C27.6636 0 28.1953 0.531738 28.1953 1.19092V5.92383L30.7046 3.59912C31.1836 3.15088 31.9351 3.17725 32.3833 3.66064C32.8315 4.13965 32.8052 4.89111 32.3218 5.33936L28.1953 9.16699V16.5894L31.4956 13.6978C31.8911 13.3506 32.4888 13.3945 32.8359 13.7856C32.9941 13.9658 33.0688 14.1899 33.0688 14.4097H33.0732V19.2085L38.8169 13.4648L38.729 7.96289C38.7202 7.30811 39.2432 6.76758 39.8979 6.75879C40.5527 6.75 41.0933 7.27295 41.1021 7.92774L41.1548 11.1313L44.4463 7.83984C44.9121 7.37402 45.6636 7.37402 46.1294 7.83984C46.5952 8.30567 46.5952 9.05713 46.1294 9.52295L42.7808 12.8716L46.1997 12.999C46.8545 13.021 47.3687 13.5703 47.3423 14.2251C47.3203 14.8799 46.771 15.394 46.1162 15.3677L40.4912 15.1567L35.2925 20.3643L39.3706 20.6323C39.8936 20.6631 40.2935 21.1157 40.2583 21.6387C40.2451 21.8804 40.1396 22.0913 39.9814 22.2495L36.7822 25.4487H44.8418L48.6738 21.4937C49.1309 21.0234 49.8823 21.0147 50.3525 21.4717C50.8228 21.9287 50.8315 22.6802 50.3745 23.1504L48.1465 25.4487H52.7959C53.4551 25.4487 53.9868 25.9805 53.9868 26.6397C53.9868 27.2988 53.4551 27.8306 52.7959 27.8306H48.0762L50.4009 30.3398C50.8491 30.8188 50.8228 31.5703 50.3394 32.0186C49.8604 32.4668 49.1089 32.4404 48.6606 31.957L44.833 27.8306H37.1733L40.043 31.1045C40.3901 31.5 40.3462 32.0977 39.9551 32.4448C39.7749 32.603 39.5508 32.6777 39.3311 32.6777V32.6821H34.7651L40.5308 38.4522L46.0327 38.3643C46.6875 38.3555 47.228 38.8784 47.2368 39.5332C47.2456 40.188 46.7227 40.7285 46.0679 40.7373L42.8643 40.79L46.1558 44.0815C46.6216 44.5474 46.6216 45.2988 46.1558 45.7647C45.6899 46.2305 44.9385 46.2305 44.4727 45.7647L41.124 42.416L40.9966 45.835C40.9746 46.4897 40.4253 47.0039 39.7705 46.9775C39.1157 46.9556 38.6016 46.4063 38.6279 45.7515L38.8389 40.1265L33.3896 34.6772L33.1084 38.9751C33.0776 39.4981 32.625 39.898 32.1021 39.8628C31.8604 39.8496 31.6494 39.7441 31.4912 39.5859L28.2085 36.3032V44.0903L32.335 47.918C32.814 48.3662 32.8403 49.1177 32.3965 49.5967C31.9482 50.0757 31.1968 50.1021 30.7178 49.6582L28.2085 47.3335V52.8047C28.2085 53.4639 27.6768 53.9956 27.0176 53.9956C26.3584 53.9956 25.8267 53.4639 25.8267 52.8047V47.417L23.5283 49.645C23.0581 50.1021 22.3066 50.0933 21.8496 49.6231C21.3926 49.1528 21.4014 48.4014 21.8716 47.9443L25.8267 44.1123V36.8525L22.6362 39.6475C22.2407 39.9946 21.6431 39.9507 21.2959 39.5596C21.1377 39.3794 21.063 39.1553 21.063 38.9356H21.0586V34.6069L15.7939 39.8628L16.0049 45.4878C16.0269 46.1426 15.5171 46.6919 14.8623 46.7139C14.2075 46.7358 13.6582 46.2261 13.6362 45.5713L13.5088 42.1523L9.63721 46.0239C9.17139 46.4897 8.41992 46.4897 7.9541 46.0239C7.48828 45.5581 7.48828 44.8066 7.9541 44.3408L11.7642 40.5308L8.56055 40.478C7.90576 40.4692 7.38281 39.9287 7.3916 39.2739C7.40039 38.6191 7.94092 38.0962 8.5957 38.105L14.0977 38.1929L19.2832 33.0073L14.7656 32.7085C14.2427 32.6777 13.8428 32.2251 13.8779 31.7022C13.8911 31.4605 13.9966 31.2495 14.1548 31.0913L17.4067 27.835H9.90527L6.07764 31.9614C5.62939 32.4404 4.87793 32.4668 4.39893 32.023C3.91992 31.5747 3.89355 30.8232 4.3374 30.3442L6.66211 27.835H1.19092C0.531738 27.835 0 27.3032 0 26.644C0 25.9849 0.531738 25.4531 1.19092 25.4531H6.57861L4.35059 23.1548C3.89355 22.6846 3.90234 21.9331 4.37256 21.4761C4.84277 21.019 5.59424 21.0278 6.05127 21.498L9.8833 25.4531H16.9102L14.0933 22.2363C13.7461 21.8408 13.79 21.2432 14.1812 20.896C14.3613 20.7378 14.5854 20.6631 14.8052 20.6631V20.6587H19.3667L14.1372 15.4248ZM21.2739 22.5659H16.9014L19.4326 25.4531H24.1611L21.2739 22.5659ZM31.6011 32.8887L28.2041 29.4917V33.6182L31.3462 36.7603L31.6011 32.8887ZM29.9136 27.835L32.8579 30.7793H37.2305L34.6509 27.835H29.9136ZM20.0962 27.835L16.9805 30.9507L21.0718 31.2188L24.46 27.8306H20.0962V27.835ZM30.2036 25.4531H34.0928L37.1558 22.3901L33.5039 22.1484L30.2036 25.4531ZM22.9614 32.6953V36.8306L25.8223 34.3213V29.8345L22.9614 32.6953ZM28.2041 24.0864L31.1748 21.1157V16.5103L28.2041 19.1162V24.0864Z" fill="#2EA8D7"/>
</g>
<defs>
<clipPath id="clip0_1_215">
<rect width="54" height="54" fill="white"/>
</clipPath>
</defs>
</svg>
