<svg width="20" height="14" viewBox="0 0 20 14" fill="none" xmlns="http://www.w3.org/2000/svg">
<g clip-path="url(#clip0_1_164)">
<path d="M1.84245 3.2308H5.51595L8.55469 0.162761C8.66291 0.0554177 8.80916 -0.00481415 8.96159 -0.00481415C9.11402 -0.00481415 9.26027 0.0554177 9.36849 0.162761C9.42148 0.216567 9.46318 0.280427 9.49114 0.350585C9.51909 0.420743 9.53273 0.495783 9.53125 0.57129V13.2324C9.53111 13.3474 9.49676 13.4598 9.43257 13.5552C9.36838 13.6506 9.27726 13.7247 9.1708 13.7682C9.06434 13.8116 8.94736 13.8224 8.83475 13.7992C8.72213 13.776 8.61898 13.7197 8.53841 13.6377L5.53548 11.1963H1.84245C1.35476 11.195 0.887363 11.0009 0.542208 10.6564C0.197054 10.3118 0.00214673 9.84478 0 9.3571L0 5.07324C0.00214127 4.58526 0.196943 4.11786 0.542006 3.7728C0.887069 3.42774 1.35446 3.23294 1.84245 3.2308ZM12.1598 5.14649C12.1209 5.01253 12.1353 4.86871 12.2 4.74512C12.2646 4.62152 12.3746 4.52773 12.5069 4.48337C12.6391 4.439 12.7834 4.4475 12.9095 4.50709C13.0357 4.56667 13.1339 4.67273 13.1836 4.80306C13.3691 5.35482 13.4587 6.21257 13.444 7.028C13.4294 7.84343 13.3122 8.61003 13.0876 9.07389C13.0248 9.20339 12.9131 9.30264 12.7771 9.3498C12.6411 9.39696 12.492 9.38817 12.3625 9.32536C12.233 9.26255 12.1337 9.15087 12.0866 9.01489C12.0394 8.87891 12.0482 8.72976 12.111 8.60026C12.2738 8.27474 12.3503 7.66276 12.3633 7.01009C12.389 6.38201 12.3193 5.75366 12.1566 5.14649H12.1598ZM14.9495 3.12826C14.9223 3.06253 14.9083 2.99208 14.9082 2.92093C14.9082 2.84978 14.9222 2.77932 14.9494 2.71358C15.0043 2.5808 15.1098 2.47529 15.2425" fill="#2B2B2B"/>
</g>
<defs>
<clipPath id="clip0_1_164">
<rect width="20" height="13.8118" fill="white"/>
</clipPath>
</defs>
</svg>
