<svg width="20" height="16" viewBox="0 0 20 16" fill="none" xmlns="http://www.w3.org/2000/svg">
<g clip-path="url(#clip0_1_149)">
<path d="M2.08496 3.6556H6.24023L9.67773 0.192056C9.7382 0.131524 9.81 0.083504 9.88904 0.0507408C9.96807 0.0179776 10.0528 0.00111389 10.1383 0.00111389C10.2239 0.00111389 10.3086 0.0179776 10.3877 0.0507408C10.4667 0.083504 10.5385 0.131524 10.599 0.192056C10.6605 0.251603 10.7093 0.322943 10.7426 0.401808C10.7759 0.480673 10.7929 0.565441 10.7926 0.65104V14.974C10.7945 15.1049 10.7567 15.2334 10.6844 15.3425C10.6121 15.4517 10.5085 15.5365 10.3872 15.5859C10.2659 15.6353 10.1326 15.647 10.0045 15.6194C9.87651 15.5918 9.75978 15.5263 9.6696 15.4313L6.27279 12.6644H2.08496C1.53239 12.6631 1.00282 12.443 0.612095 12.0523C0.221369 11.6616 0.00128955 11.132 0 10.5794L0 5.74056C0.00128955 5.18799 0.221369 4.65842 0.612095 4.26769C1.00282 3.87697 1.53239 3.65689 2.08496 3.6556ZM18.4619 4.97233C18.5449 4.88778 18.644 4.82063 18.7532 4.77479C18.8625 4.72894 18.9798 4.70533 19.0983 4.70533C19.2168 4.70533 19.3341 4.72894 19.4434 4.77479C19.5526 4.82063 19.6517 4.88778 19.7347 4.97233C19.9034 5.14347 19.9979 5.37412 19.9979 5.61442C19.9979 5.85472 19.9034 6.08536 19.7347 6.25651L18.2015 7.8125L19.7396 9.37337C19.907 9.54449 19.9999 9.77486 19.998 10.0142C19.9962 10.2536 19.8998 10.4825 19.7298 10.651C19.6468 10.7347 19.548 10.801 19.4392 10.8463C19.3304 10.8916 19.2137 10.9149 19.0959 10.9149C18.978 10.9149 18.8613 10.8916 18.7525 10.8463C18.6437 10.801 18.545 10.7347 18.4619 10.651L16.9271 9.09831L15.3971 10.6527C15.3139 10.7368 15.2148 10.8036 15.1055 10.8492C14.9963 10.8948 14.8791 10.9183 14.7607 10.9183C14.6424 10.9183 14.5252 10.8948 14.4159 10.8492C14.3067 10.8036 14.2076 10.7368 14.1243 10.6527C13.9556 10.4812 13.861 10.2503 13.861 10.0098C13.861 9.7692 13.9556 9.53828 14.1243 9.36686L15.6624 7.8125L14.1243 6.25C13.9571 6.07916 13.8642 5.84906 13.866 5.60996C13.8679 5.37087 13.9642 5.14222 14.1341 4.97396C14.2169 4.88995 14.3156 4.82325 14.4245 4.77772C14.5333 4.73219 14.6501 4.70875 14.7681 4.70875C14.886 4.70875 15.0028 4.73219 15.1117 4.77772C15.2205 4.82325 15.3192 4.88995 15.402 4.97396L16.932 6.52344L18.4619 4.9707V4.97233Z" fill="#2B2B2B"/>
</g>
<defs>
<clipPath id="clip0_1_149">
<rect width="20" height="15.625" fill="white"/>
</clipPath>
</defs>
</svg>
