<svg width="20" height="14" viewBox="0 0 20 14" fill="none" xmlns="http://www.w3.org/2000/svg">
<g clip-path="url(#clip0_1_164)">
<path d="M1.84245 3.2308H5.51595L8.55469 0.162761C8.66291 0.0554177 8.80916 -0.00481415 8.96159 -0.00481415C9.11402 -0.00481415 9.26027 0.0554177 9.36849 0.162761C9.42148 0.216567 9.46318 0.280427 9.49114 0.350585C9.51909 0.420743 9.53273 0.495783 9.53125 0.57129V13.2324C9.53111 13.3474 9.49676 13.4598 9.43257 13.5552C9.36838 13.6506 9.27726 13.7247 9.1708 13.7682C9.06434 13.8116 8.94736 13.8224 8.83475 13.7992C8.72213 13.776 8.61898 13.7197 8.53841 13.6377L5.53548 11.1963H1.84245C1.35476 11.195 0.887363 11.0009 0.542208 10.6564C0.197054 10.3118 0.00214673 9.84478 0 9.3571L0 5.07324C0.00214127 4.58526 0.196943 4.11786 0.542006 3.7728C0.887069 3.42774 1.35446 3.23294 1.84245 3.2308ZM12.1598 5.14649C12.1209 5.01253 12.1353 4.86871 12.2 4.74512C12.2646 4.62152 12.3746 4.52773 12.5069 4.48337C12.6391 4.439 12.7834 4.4475 12.9095 4.50709C13.0357 4.56667 13.1339 4.67273 13.1836 4.80306C13.3691 5.35482 13.4587 6.21257 13.444 7.028C13.4294 7.84343 13.3122 8.61003 13.0876 9.07389C13.0248 9.20339 12.9131 9.30264 12.7771 9.3498C12.6411 9.39696 12.492 9.38817 12.3625 9.32536C12.233 9.26255 12.1337 9.15087 12.0866 9.01489C12.0394 8.87891 12.0482 8.72976 12.111 8.60026C12.2738 8.27474 12.3503 7.66276 12.3633 7.01009C12.389 6.38201 12.3193 5.75366 12.1566 5.14649H12.1598ZM14.9495 3.12826C14.9223 3.06253 14.9083 2.99208 14.9082 2.92093C14.9082 2.84978 14.9222 2.77932 14.9494 2.71358C15.0043 2.5808 15.1098 2.47529 15.2425 2.42025C15.3753 2.36521 15.5244 2.36516 15.6572 2.4201C15.79 2.47504 15.8955 2.58048 15.9505 2.71322C16.4518 3.91764 16.7236 5.43294 16.7464 6.94499C16.7692 8.45703 16.5495 9.91537 16.0726 11.097C16.0193 11.2297 15.9154 11.3359 15.7839 11.392C15.6523 11.4482 15.5038 11.4498 15.3711 11.3965C15.2384 11.3432 15.1322 11.2393 15.0761 11.1078C15.0199 10.9762 15.0183 10.8277 15.0716 10.695C15.4948 9.64681 15.6885 8.30729 15.6689 6.9515C15.6494 5.5957 15.4036 4.20736 14.9512 3.12663L14.9495 3.12826ZM17.6465 1.41276C17.5843 1.28326 17.5762 1.13437 17.6238 0.998847C17.6714 0.863323 17.7709 0.752265 17.9004 0.690105C18.0299 0.627945 18.1788 0.619774 18.3143 0.667391C18.4498 0.715008 18.5609 0.814511 18.623 0.944011C19.5208 2.8559 19.9918 4.94026 20.0033 7.05241C20.0195 9.09994 19.6061 11.141 18.7012 12.8809C18.6716 12.9479 18.6286 13.0081 18.5749 13.0579C18.5213 13.1078 18.458 13.1461 18.389 13.1707C18.32 13.1952 18.2467 13.2054 18.1736 13.2007C18.1005 13.196 18.0292 13.1764 17.9639 13.1432C17.8986 13.1099 17.8408 13.0637 17.794 13.0074C17.7472 12.951 17.7124 12.8858 17.6917 12.8155C17.671 12.7453 17.6648 12.6715 17.6735 12.5988C17.6823 12.5261 17.7057 12.4559 17.7425 12.3926C18.5563 10.8122 18.9339 8.94694 18.9193 7.06706C18.9104 5.11417 18.4755 3.18674 17.6449 1.41927L17.6465 1.41276Z" fill="#2B2B2B"/>
</g>
<defs>
<clipPath id="clip0_1_164">
<rect width="20" height="13.8118" fill="white"/>
</clipPath>
</defs>
</svg>
